<?xml version="1.0" encoding="UTF-8" standalone="no"?>
<!-- Created with Inkscape (http://www.inkscape.org/) -->

<svg
   width="512mm"
   height="512mm"
   viewBox="0 0 512 512"
   version="1.1"
   id="svg5"
   xml:space="preserve"
   inkscape:version="1.2.2 (b0a8486541, 2022-12-01)"
   sodipodi:docname="fatcat-layered.svg"
   xmlns:inkscape="http://www.inkscape.org/namespaces/inkscape"
   xmlns:sodipodi="http://sodipodi.sourceforge.net/DTD/sodipodi-0.dtd"
   xmlns="http://www.w3.org/2000/svg"
   xmlns:svg="http://www.w3.org/2000/svg"><sodipodi:namedview
     id="namedview7"
     pagecolor="#333333"
     bordercolor="#000000"
     borderopacity="0.25"
     inkscape:showpageshadow="2"
     inkscape:pageopacity="0"
     inkscape:pagecheckerboard="0"
     inkscape:deskcolor="#d1d1d1"
     inkscape:document-units="mm"
     showgrid="false"
     inkscape:zoom="0.26794337"
     inkscape:cx="910.6402"
     inkscape:cy="1007.6756"
     inkscape:window-width="1211"
     inkscape:window-height="720"
     inkscape:window-x="1845"
     inkscape:window-y="1485"
     inkscape:window-maximized="0"
     inkscape:current-layer="layer4" /><defs
     id="defs2" /><g
     inkscape:groupmode="layer"
     id="layer4"
     inkscape:label="Tail"
     style="display:inline;stroke:none"><path
       style="fill:#000000;stroke:#ffffff;stroke-width:3;stroke-linecap:round;stroke-linejoin:round;stroke-dasharray:none;stroke-opacity:1"
       d="m 346.02237,369.63014 c 6.55096,-6.75022 8.47612,1.57682 17.26488,-5.09394 8.78876,-6.67077 9.19785,-6.80519 15.70548,-17.6289 6.50762,-10.8237 7.93872,-13.97082 9.58682,-23.09422 1.6481,-9.1234 1.51493,-14.39574 -3.60158,-29.78469 -5.11652,-15.38895 -8.02239,-24.15174 -9.37879,-33.90609 -1.35641,-9.75435 2.38792,-22.00166 9.4456,-26.109 7.05767,-4.10734 18.64757,-2.93315 27.04472,9.34906 8.39716,12.28221 5.67567,32.4432 4.11386,49.85665 -1.5618,17.41345 -1.81932,19.9157 -11.10155,40.60395 -9.28224,20.68825 -23.06096,33.1145 -36.41608,43.90145 -13.35512,10.78694 -26.19352,15.2994 -33.99528,8.90346 -7.80176,-6.39594 4.78096,-10.24751 11.33192,-16.99773 z"
       id="path1586"
       sodipodi:nodetypes="zzzzzzzzzzzzz"
       inkscape:label="tail-path" /></g><g
     id="path637"
     inkscape:label="Old Feet"
     style="display:none;stroke:none"
     sodipodi:insensitive="true"><g
       id="g3241"
       style="display:none"><path
         style="color:#000000;display:none;fill:#000000;stroke-width:3;stroke-linecap:round;stroke-linejoin:round;-inkscape-stroke:none"
         d="m 308.40528,396.21237 -38.33674,-0.87883 c 0,0 -5.55218,27.74196 1.73822,35.63136 7.2904,7.8894 26.58848,8.05499 33.89333,-0.86903 7.30486,-8.92402 2.70519,-33.8835 2.70519,-33.8835 z"
         id="path3237" /><path
         style="color:#000000;display:none;fill:#ffffff;stroke-linecap:round;stroke-linejoin:round;-inkscape-stroke:none"
         d="m 271.62464,395.36639 c -0.72788,-0.017 -2.88397,-1.04122 -3.02698,-0.32733 0,0 -1.40655,7.01702 -1.89063,15.06055 -0.24204,4.02176 -0.25986,8.30879 0.26563,12.17187 0.52548,3.86309 1.54803,7.34708 3.73242,9.71094 4.08937,4.42537 11.09757,6.44563 18.0625,6.35352 6.96492,-0.0921 14.02835,-2.32255 18.09375,-7.28907 4.18434,-5.11181 4.67064,-13.80292 4.42969,-21.2871 -0.24096,-7.48419 -1.41016,-13.81836 -1.41016,-13.81836 0.0477,0.14612 0.15643,-0.46613 -2.85978,0.24446 0.12957,0.77706 1.07433,7.53276 1.27191,13.66956 0.23266,7.22654 -0.63339,15.47882 -3.75391,19.29101 -3.23944,3.9575 -9.47763,6.10571 -15.81054,6.18946 -6.33292,0.0838 -12.6193,-1.92465 -15.82032,-5.38867 -1.46081,-1.58084 -2.47898,-4.52266 -2.96289,-8.08008 -0.4839,-3.55742 -0.47884,-7.68605 -0.24414,-11.58594 0.40349,-6.70449 1.77533,-14.11966 1.92135,-14.89682"
         id="path3239"
         sodipodi:nodetypes="ccssssssccssssczc" /></g><path
       style="display:none;fill:#000000;stroke:#ffffff;stroke-width:3;stroke-linecap:round;stroke-linejoin:round;stroke-dasharray:none;stroke-opacity:1"
       d="m 212.67025,393.92914 -38.33675,-0.87883 c 0,0 -5.55217,27.74196 1.73823,35.63136 7.2904,7.8894 26.58848,8.05499 33.89334,-0.86903 7.30485,-8.92402 2.70518,-33.8835 2.70518,-33.8835 z"
       id="path637-6"
       sodipodi:nodetypes="cczzc"
       inkscape:label="Left Foot" /></g><g
     inkscape:label="Body"
     inkscape:groupmode="layer"
     id="layer1"
     sodipodi:insensitive="true"
     style="display:inline;fill:#ffffff;stroke:none"><path
       style="fill:#000000;stroke:#ffffff;stroke-width:3;stroke-linecap:round;stroke-linejoin:round;stroke-dasharray:none;stroke-opacity:1"
       d="m 171.78395,117.32305 c -38.30731,32.18454 -57.7975,177.51475 -50.4053,228.56247 7.39219,51.04772 19.94637,68.18957 49.53627,70.39358 43.44083,3.23569 99.64271,2.83343 132.96609,2.60743 33.32338,-0.22601 48.16731,-19.12034 59.96494,-71.26295 11.79763,-52.14261 -8.54862,-194.92062 -57.35786,-232.90778 -48.80924,-37.987169 -96.39683,-29.577295 -134.70414,2.60725 z"
       id="path375"
       sodipodi:nodetypes="zzszzzz"
       inkscape:label="body-path" /></g><g
     inkscape:groupmode="layer"
     id="layer3"
     inkscape:label="Ears"
     style="display:inline;stroke:none"
     sodipodi:insensitive="true"><g
       id="path850"
       inkscape:label="Left Ear"><path
         style="color:#000000;fill:#ffffff;stroke-linecap:round;stroke-linejoin:round;-inkscape-stroke:none"
         d="m 179.32031,80.195312 a 1.50015,1.50015 0 0 0 -0.78125,1.335938 l 0.49024,34.20117 a 1.50015,1.50015 0 0 0 2.20507,1.30078 l 28.3379,-15.14453 a 1.50015,1.50015 0 0 0 0.12109,-2.574217 L 180.86719,80.259766 a 1.50015,1.50015 0 0 0 -1.54688,-0.06445 z m 2.25977,4.13086 24.35937,16.101558 -23.94726,12.80079 z"
         id="path3325"
         inkscape:label="left-ear-path" /><path
         style="color:#000000;display:inline;fill:#000000;stroke:none;stroke-width:3;stroke-linecap:round;stroke-linejoin:round;-inkscape-stroke:none"
         d="m 182.12222,120.96159 -0.78586,-37.315822 32.2175,21.607452 z"
         id="path3323"
         sodipodi:nodetypes="cccc"
         inkscape:label="left-ear-fill" /></g><g
       id="path852"
       inkscape:label="Right Ear"><path
         style="color:#000000;fill:#ffffff;stroke-linecap:round;stroke-linejoin:round;-inkscape-stroke:none"
         d="m 307.18336,124.26563 c 1.05529,0.74095 2.49185,-0.10668 2.35352,-1.38868 l -4.39649,-40.550778 c -0.0568,-0.525874 -0.38623,-0.983003 -0.86718,-1.203125 h 2.3e-4 c -0.48087,-0.219589 -1.04182,-0.169876 -1.47657,0.130859 l -26.87304,18.566406 c -0.85846,0.593508 -0.86361,1.860478 -0.01,2.460938 5.06208,3.66406 10.21804,7.32813 15.43919,10.99219 5.22115,3.66406 10.5075,7.32813 15.83034,10.99219 m -0.98609,-4.35938 -13.39844,-9.4209 -13.39844,-9.4209 m 0,0 23.0293,-15.910153 3.76758,34.751953"
         id="path3313"
         sodipodi:nodetypes="ccccccccsccccccc"
         inkscape:label="right-ear-path" /><path
         style="color:#000000;display:inline;fill:#000000;stroke:none;stroke-width:3;stroke-linecap:round;stroke-linejoin:round;-inkscape-stroke:none"
         d="m 275.03475,103.79882 27.70384,-19.200739 4.11733,40.520049 z"
         id="path3311"
         sodipodi:nodetypes="cccc"
         inkscape:label="right-ear-fill" /></g></g><g
     inkscape:groupmode="layer"
     id="layer7"
     inkscape:label="Feet"
     style="display:inline;fill:#ffffff"><g
       id="g3228"
       style="display:inline;stroke:none"
       transform="matrix(1,0,0,0.52436789,0,208.48807)"
       inkscape:label="Right Foot"><path
         style="color:#000000;display:inline;fill:#000000;stroke-width:3;stroke-linecap:round;stroke-linejoin:round;-inkscape-stroke:none"
         d="m 308.40528,396.21237 -38.33674,-0.87883 c 0,0 -5.55218,27.74196 1.73822,35.63136 7.2904,7.8894 26.58848,8.05499 33.89333,-0.86903 7.30486,-8.92402 2.70519,-33.8835 2.70519,-33.8835 z"
         id="path3224"
         inkscape:label="right-foot-fill" /><path
         style="color:#000000;display:inline;fill:#ffffff;stroke-linecap:round;stroke-linejoin:round;-inkscape-stroke:none"
         d="m 271.62464,395.36639 c -0.72788,-0.017 -2.88397,-1.04122 -3.02698,-0.32733 0,0 -1.40655,7.01702 -1.89063,15.06055 -0.24204,4.02176 -0.25986,8.30879 0.26563,12.17187 0.52548,3.86309 1.54803,7.34708 3.73242,9.71094 4.08937,4.42537 11.09757,6.44563 18.0625,6.35352 6.96492,-0.0921 14.02835,-2.32255 18.09375,-7.28907 4.18434,-5.11181 4.67064,-13.80292 4.42969,-21.2871 -0.24096,-7.48419 -1.41016,-13.81836 -1.41016,-13.81836 0.0477,0.14612 0.15643,-0.46613 -2.85978,0.24446 0.12957,0.77706 1.07433,7.53276 1.27191,13.66956 0.23266,7.22654 -0.63339,15.47882 -3.75391,19.29101 -3.23944,3.9575 -9.47763,6.10571 -15.81054,6.18946 -6.33292,0.0838 -12.6193,-1.92465 -15.82032,-5.38867 -1.46081,-1.58084 -2.47898,-4.52266 -2.96289,-8.08008 -0.4839,-3.55742 -0.47884,-7.68605 -0.24414,-11.58594 0.40349,-6.70449 1.77533,-14.11966 1.92135,-14.89682"
         id="path3226"
         sodipodi:nodetypes="ccssssssccssssczc"
         inkscape:label="right-foot-path" /></g><g
       id="g3265"
       style="display:inline;stroke:none"
       transform="matrix(1,0,0,0.52436789,-91.737948,206.12067)"
       inkscape:label="Left Foot"><path
         style="color:#000000;display:inline;fill:#000000;stroke-width:3;stroke-linecap:round;stroke-linejoin:round;-inkscape-stroke:none"
         d="m 308.40528,396.21237 -38.33674,-0.87883 c 0,0 -5.55218,27.74196 1.73822,35.63136 7.2904,7.8894 26.58848,8.05499 33.89333,-0.86903 7.30486,-8.92402 2.70519,-33.8835 2.70519,-33.8835 z"
         id="path3261"
         inkscape:label="left-foot-fill" /><path
         style="color:#000000;display:inline;fill:#ffffff;stroke-linecap:round;stroke-linejoin:round;-inkscape-stroke:none"
         d="m 271.62464,395.36639 c -0.72788,-0.017 -2.88397,-1.04122 -3.02698,-0.32733 0,0 -1.40655,7.01702 -1.89063,15.06055 -0.24204,4.02176 -0.25986,8.30879 0.26563,12.17187 0.52548,3.86309 1.54803,7.34708 3.73242,9.71094 4.08937,4.42537 11.09757,6.44563 18.0625,6.35352 6.96492,-0.0921 14.02835,-2.32255 18.09375,-7.28907 4.18434,-5.11181 4.67064,-13.80292 4.42969,-21.2871 -0.24096,-7.48419 -1.41016,-13.81836 -1.41016,-13.81836 0.0477,0.14612 0.15643,-0.46613 -2.85978,0.24446 0.12957,0.77706 1.07433,7.53276 1.27191,13.66956 0.23266,7.22654 -0.63339,15.47882 -3.75391,19.29101 -3.23944,3.9575 -9.47763,6.10571 -15.81054,6.18946 -6.33292,0.0838 -12.6193,-1.92465 -15.82032,-5.38867 -1.46081,-1.58084 -2.47898,-4.52266 -2.96289,-8.08008 -0.4839,-3.55742 -0.47884,-7.68605 -0.24414,-11.58594 0.40349,-6.70449 1.77533,-14.11966 1.92135,-14.89682"
         id="path3263"
         sodipodi:nodetypes="ccssssssccssssczc"
         inkscape:label="left-foot-path" /></g></g><g
     inkscape:groupmode="layer"
     id="layer2"
     inkscape:label="Face"
     style="display:inline;fill:#ffffff"><path
       style="fill:#ffffff;stroke:none;stroke-width:0.265;stroke-dasharray:none"
       id="path846"
       d="m 208.88585,180.63699 c 2.10186,2.4347 4.91422,3.68241 7.71568,5.18833 1.49777,0.40064 3.08112,0.47716 4.61914,0.31488 1.34788,-0.19629 2.64349,-0.6063 3.99597,-0.78896 1.16225,-0.0397 2.26247,-0.2162 3.3335,-0.66357 0.81102,-0.24397 1.39847,-0.88423 2.09631,-1.32622 0.73494,-0.45572 1.33955,-1.02552 1.86817,-1.70623 0.50978,-0.86754 0.49972,-1.88111 0.68202,-2.83894 0.45492,-1.38213 1.99974,0.19142 -3.2397,-1.93497 -0.1549,-0.0629 0.20746,0.26353 0.29198,0.40776 0.2608,0.44502 0.46138,0.98382 0.65609,1.45303 0.41056,1.08044 0.67734,2.24083 1.37894,3.18326 0.38402,0.51583 0.60863,0.66749 1.0994,1.10479 2.44423,1.81173 5.17252,3.00203 8.03466,3.90903 0.95598,0.29515 1.89721,0.74563 2.89652,0.88945 0.60075,0.0865 0.79768,0.022 1.40248,-0.0491 1.45842,-0.28817 2.82079,-0.88537 4.15845,-1.51583 1.28952,-0.5065 2.46575,-1.17508 3.32948,-2.27053 0.38333,-0.61934 0.70067,-1.27543 1.08772,-1.89153 0,0 -3.39778,-1.97417 -3.39778,-1.97417 v 0 c -0.36699,0.6097 -0.67193,1.25314 -1.04326,1.86122 -0.84236,1.0334 -1.99612,1.62923 -3.21709,2.12812 -1.31408,0.59394 -2.6445,1.19828 -4.0856,1.39925 -1.47223,0.059 -2.82173,-0.45313 -4.19086,-0.95372 -0.77241,-0.26869 -1.5402,-0.55101 -2.30781,-0.83302 -0.27293,-0.10027 -1.05077,-0.48142 -0.81478,-0.31154 0.18409,0.13252 4.08297,2.47512 1.74091,1.06673 -0.57855,-0.46836 -1.18674,-0.94573 -1.58212,-1.59326 -0.47232,-0.77356 -0.66621,-1.68645 -0.98219,-2.52426 -0.0686,-0.18579 -0.61133,-1.82415 -0.79873,-1.94142 -2.28953,-1.43273 -3.3562,-3.27826 -3.88461,-1.4614 -0.17883,0.89502 -0.13551,1.85423 -0.60101,2.67163 -0.50775,0.64323 -1.08895,1.17434 -1.79178,1.60251 -0.66699,0.45165 -1.27062,1.01973 -2.05786,1.26117 -1.04068,0.41763 -2.13283,0.51733 -3.2447,0.60715 -1.34212,0.20131 -2.63329,0.62655 -3.98339,0.77226 -1.50641,0.10577 -3.04603,0.0383 -4.4881,-0.44584 5.77376,3.60236 -0.17957,0.12897 -1.03788,-1.28912 0,0 -3.63817,-1.50698 -3.63817,-1.50698 z"
       inkscape:label="mouth-path" /></g><g
     inkscape:groupmode="layer"
     id="layer6"
     inkscape:label="Hands"
     style="display:inline"><path
       style="fill:#ffffff;stroke:none;stroke-width:0.264999;stroke-dasharray:none"
       id="path1847"
       d="m 152.6239,189.34488 c -0.71041,2.20342 -1.49913,4.38008 -2.41427,6.50675 -0.84465,2.16762 -1.70821,4.31213 -2.1336,6.6056 -0.23456,1.9372 -0.51986,3.86658 -0.6943,5.81102 -0.18297,2.13085 -0.21142,4.27068 -0.23924,6.40794 -0.0125,1.70569 -0.09,3.40745 0.14423,5.10044 0.0752,1.76574 0.75115,3.33287 1.50553,4.90061 0.71882,1.88423 1.50497,3.46116 2.95079,4.88657 2.51361,2.00367 4.80934,3.06202 7.83157,3.28577 1.399,-0.10652 2.79366,-0.29482 4.06412,-0.91388 0.14713,-0.11838 0.30901,-0.22046 0.44139,-0.35513 0.056,-0.057 0.55939,-0.73852 0.6321,-0.82144 0.39697,-0.45274 0.82729,-0.88199 1.22759,-1.33348 0.78016,-0.88274 1.17291,-2.01118 1.88316,-2.94443 0.0354,-0.0465 1.09216,-1.26476 1.14879,-1.33011 0.16053,-0.23736 0.34566,-0.45982 0.4816,-0.71207 0.4302,-0.79831 0.69242,-1.70211 1.04068,-2.53669 0.0863,-0.20675 0.66842,-1.45591 0.76147,-1.65643 0.78167,-1.48219 1.13612,-3.13757 1.85995,-4.63886 1.18553,-2.38231 2.57415,-4.65322 3.85961,-6.98234 0.18122,-0.36464 0.36243,-0.72929 0.54365,-1.09393 0,0 -3.35433,-1.90554 -3.35433,-1.90554 v 0 c -0.17337,0.3623 -0.34675,0.72461 -0.52013,1.08691 -1.26798,2.34544 -2.65965,4.62427 -3.93184,6.96569 -0.71248,1.51012 -1.07941,3.15952 -1.8454,4.65198 -0.25943,0.56036 -0.54339,1.10982 -0.78229,1.67924 -0.44443,1.05926 -0.72631,2.2143 -1.45353,3.12981 -0.60232,0.70881 -1.21697,1.389 -1.71041,2.18204 -0.33527,0.53885 -0.50451,0.9697 -0.86516,1.48834 -0.14308,0.20575 -0.31489,0.38994 -0.47234,0.58491 -0.41156,0.45522 -0.85605,0.88878 -1.26019,1.34926 -0.0836,0.0953 -0.47359,0.64029 -0.57452,0.7364 -0.11629,0.11073 -0.25882,0.19011 -0.38823,0.28517 -1.23914,0.54461 -2.58654,0.73884 -3.93514,0.75508 -0.72705,-0.0708 -1.44468,-0.14977 -2.14941,-0.35504 -1.45888,-0.42494 -1.90581,-1.00965 1.82311,1.31376 0.24574,0.15312 -0.5008,-0.29076 -0.75119,-0.43614 -1.61256,-1.4276 -2.26829,-2.75737 -3.00823,-4.75785 -0.7666,-1.52273 -1.48317,-3.04699 -1.53998,-4.78123 -0.25233,-1.68124 -0.22731,-3.36289 -0.2003,-5.06184 0.014,-2.12949 0.0434,-4.26092 0.21589,-6.38458 0.17929,-1.93275 0.49409,-3.84588 0.68559,-5.77678 0.40301,-2.26946 1.21562,-4.40571 2.06571,-6.54284 0.92037,-2.13881 1.69643,-4.32955 2.51351,-6.50882 0,0 -3.45601,-1.88384 -3.45601,-1.88384 z"
       inkscape:label="hands-l-path" /><path
       style="fill:#ffffff;stroke:none;stroke-width:0.290174;stroke-dasharray:none"
       id="path1851"
       d="m 301.08982,188.68989 c 0.0424,2.80323 0.0542,5.60698 0.0517,8.41062 -0.0188,2.79592 -0.13661,5.59967 0.39214,8.33929 0.57581,2.59027 1.51463,5.02134 2.62922,7.33467 0.73482,1.67217 1.6719,3.18877 2.97277,4.26811 8.58528,5.9583 3.09825,2.12469 1.51906,1.10171 -0.55518,-0.35964 1.0718,0.79942 1.59641,1.2199 2.00848,1.60985 0.5043,0.42477 4.83431,3.41526 -4.36277,-2.91853 -2.49854,-1.69269 1.74792,1.27909 0.79975,0.55971 -3.21728,-2.20073 -2.40678,-1.6637 2.20495,1.46098 3.68916,2.78549 5.90401,3.62662 1.72077,0.67807 3.33391,0.38517 4.97213,-0.42461 1.66653,-0.7036 3.12989,-1.78905 4.49982,-3.10961 1.83373,-1.78284 2.38358,-4.48884 2.91616,-7.11757 0.57976,-3.10802 0.58235,-6.31215 0.64257,-9.48067 0.0429,-3.24766 -0.60486,-6.3854 -1.15038,-9.53842 -0.22871,-1.33511 -0.53716,-2.62794 -0.9176,-3.90975 0,0 -3.51044,-1.95982 -3.51044,-1.95982 v 0 c 0.40539,1.26104 0.72027,2.5364 0.96311,3.85873 0.54099,3.12404 1.22602,6.22698 1.18909,9.44707 -0.0314,3.13989 -0.0634,6.30604 -0.60325,9.39199 -0.49856,2.53483 -1.04431,5.13775 -2.83705,6.8174 -1.34358,1.28404 -2.7954,2.31229 -4.42288,2.99829 -1.61695,0.69384 -3.16627,0.87772 -4.81515,0.16038 -0.2808,-0.12209 -0.56663,-0.22869 -0.84241,-0.36627 -0.27789,-0.13864 -1.0691,-0.65834 -0.81682,-0.46149 1.08847,0.84934 8.00595,5.52494 -1.77713,-1.19369 -0.59661,-0.40972 10.85922,7.57584 -1.76231,-1.28505 0.84005,0.59126 1.67066,1.20226 2.52016,1.77379 0.24447,0.16449 -0.47191,-0.36313 -0.7039,-0.55185 -0.25453,-0.20702 -0.49715,-0.43499 -0.75544,-0.63521 -1.61933,-1.25527 -3.33147,-2.32996 -4.97739,-3.53442 -0.8699,-0.63655 1.76278,1.22677 2.64416,1.84016 -1.36943,-0.92491 -2.34251,-2.43904 -3.08493,-4.08259 -1.13837,-2.26422 -2.07367,-4.65699 -2.67129,-7.21006 -0.60243,-2.70011 -0.4591,-5.48882 -0.47424,-8.26215 -0.003,-2.78258 0.009,-5.56528 0.0517,-8.34743 0,0 -3.51708,-2.14872 -3.51708,-2.14872 z"
       inkscape:label="hands-r-path" /></g><g
     inkscape:groupmode="layer"
     id="layer5"
     inkscape:label="Eyes Open"
     style="display:inline"><ellipse
       style="display:inline;fill:#ffffff;stroke:none;stroke-width:0.265;stroke-dasharray:none"
       id="path755"
       cx="196.76497"
       cy="163.76465"
       rx="7.9098673"
       ry="8.3492842"
       inkscape:label="eyes-open-l-path" /><ellipse
       style="display:inline;fill:#ffffff;stroke:none;stroke-width:0.265;stroke-dasharray:none"
       id="path755-7"
       cx="265.80731"
       cy="166.10925"
       rx="7.9098673"
       ry="8.3492842"
       inkscape:label="eyes-open-r-path" /></g><g
     inkscape:groupmode="layer"
     id="g1726"
     inkscape:label="Eyes Closed"
     style="display:inline"><ellipse
       style="fill:#ffffff;stroke:none;stroke-width:0.179033;stroke-dasharray:none"
       id="ellipse1722"
       cx="242.59727"
       cy="133.4344"
       rx="7.8764353"
       ry="1.1064144"
       transform="matrix(0.98886824,0.14879386,-0.32324321,0.94631592,0,0)"
       inkscape:label="eyes-closed-l-path" /><ellipse
       style="fill:#ffffff;stroke:none;stroke-width:0.185722;stroke-dasharray:none"
       id="ellipse1724"
       cx="281.38434"
       cy="137.0381"
       rx="7.9098673"
       ry="0.84259522"
       transform="rotate(5.9)"
       inkscape:label="eyes-closed-r-path" /></g></svg>
