<?xml version="1.0" encoding="UTF-8" standalone="no"?>
<!-- Created with Inkscape (http://www.inkscape.org/) -->

<svg
   width="210mm"
   height="297mm"
   viewBox="0 0 210 297"
   version="1.1"
   id="svg4521"
   inkscape:version="1.2.2 (b0a8486541, 2022-12-01)"
   sodipodi:docname="fatcat-top-eyes-closed.svg"
   xmlns:inkscape="http://www.inkscape.org/namespaces/inkscape"
   xmlns:sodipodi="http://sodipodi.sourceforge.net/DTD/sodipodi-0.dtd"
   xmlns="http://www.w3.org/2000/svg"
   xmlns:svg="http://www.w3.org/2000/svg">
  <sodipodi:namedview
     id="namedview4523"
     pagecolor="#ffffff"
     bordercolor="#000000"
     borderopacity="0.25"
     inkscape:showpageshadow="2"
     inkscape:pageopacity="0.0"
     inkscape:pagecheckerboard="0"
     inkscape:deskcolor="#d1d1d1"
     inkscape:document-units="mm"
     showgrid="false"
     inkscape:zoom="0.62930287"
     inkscape:cx="441.75867"
     inkscape:cy="504.52654"
     inkscape:window-width="2560"
     inkscape:window-height="1411"
     inkscape:window-x="1200"
     inkscape:window-y="1440"
     inkscape:window-maximized="1"
     inkscape:current-layer="layer1" />
  <defs
     id="defs4518" />
  <g
     inkscape:label="Layer 1"
     inkscape:groupmode="layer"
     id="layer1">
    <path
       style="display:none;fill:#000000;stroke:#ffffff;stroke-width:2.47815;stroke-linecap:round;stroke-linejoin:round;stroke-dasharray:none;stroke-opacity:1"
       d="m 149.50346,240.76402 c 5.41142,-5.57603 7.0017,1.30253 14.26165,-4.20786 7.25997,-5.51039 7.5979,-5.62143 12.97352,-14.56235 5.37562,-8.94092 6.55779,-11.54061 7.9192,-19.07699 1.36141,-7.53639 1.25141,-11.89161 -2.97509,-24.60365 -4.2265,-12.71205 -6.62689,-19.95055 -7.74735,-28.00814 -1.12046,-8.05759 1.97255,-18.17448 7.80254,-21.56735 5.82999,-3.39287 15.40384,-2.42293 22.3403,7.72279 6.93648,10.14573 4.68839,26.79972 3.39826,41.1841 -1.29012,14.3844 -1.50286,16.45138 -9.17044,33.54091 -7.6676,17.08954 -19.04951,27.35424 -30.08151,36.26481 -11.03201,8.91056 -21.63717,12.63807 -28.08182,7.3547 -6.44465,-5.28336 3.94932,-8.46495 9.36074,-14.04097 z"
       id="path1586"
       sodipodi:nodetypes="zzzzzzzzzzzzz"
       inkscape:label="tail-path" />
    <g
       id="g3241"
       style="display:none;stroke:none"
       transform="translate(-128.95723,-192.13102)">
      <path
         style="color:#000000;display:none;fill:#000000;stroke-width:3;stroke-linecap:round;stroke-linejoin:round;-inkscape-stroke:none"
         d="m 308.40528,396.21237 -38.33674,-0.87883 c 0,0 -5.55218,27.74196 1.73822,35.63136 7.2904,7.8894 26.58848,8.05499 33.89333,-0.86903 7.30486,-8.92402 2.70519,-33.8835 2.70519,-33.8835 z"
         id="path3237" />
      <path
         style="color:#000000;display:none;fill:#ffffff;stroke-linecap:round;stroke-linejoin:round;-inkscape-stroke:none"
         d="m 271.62464,395.36639 c -0.72788,-0.017 -2.88397,-1.04122 -3.02698,-0.32733 0,0 -1.40655,7.01702 -1.89063,15.06055 -0.24204,4.02176 -0.25986,8.30879 0.26563,12.17187 0.52548,3.86309 1.54803,7.34708 3.73242,9.71094 4.08937,4.42537 11.09757,6.44563 18.0625,6.35352 6.96492,-0.0921 14.02835,-2.32255 18.09375,-7.28907 4.18434,-5.11181 4.67064,-13.80292 4.42969,-21.2871 -0.24096,-7.48419 -1.41016,-13.81836 -1.41016,-13.81836 0.0477,0.14612 0.15643,-0.46613 -2.85978,0.24446 0.12957,0.77706 1.07433,7.53276 1.27191,13.66956 0.23266,7.22654 -0.63339,15.47882 -3.75391,19.29101 -3.23944,3.9575 -9.47763,6.10571 -15.81054,6.18946 -6.33292,0.0838 -12.6193,-1.92465 -15.82032,-5.38867 -1.46081,-1.58084 -2.47898,-4.52266 -2.96289,-8.08008 -0.4839,-3.55742 -0.47884,-7.68605 -0.24414,-11.58594 0.40349,-6.70449 1.77533,-14.11966 1.92135,-14.89682"
         id="path3239"
         sodipodi:nodetypes="ccssssssccssssczc" />
    </g>
    <path
       style="display:none;fill:#000000;stroke:#ffffff;stroke-width:3;stroke-linecap:round;stroke-linejoin:round;stroke-dasharray:none;stroke-opacity:1"
       d="m 83.71302,201.79812 -38.33675,-0.87883 c 0,0 -5.55217,27.74196 1.73823,35.63136 7.2904,7.8894 26.58848,8.05499 33.89334,-0.86903 7.30485,-8.92402 2.70518,-33.8835 2.70518,-33.8835 z"
       id="path637-6"
       sodipodi:nodetypes="cczzc"
       inkscape:label="Left Foot" />
    <path
       style="display:none;fill:#000000;stroke:#ffffff;stroke-width:2.16683;stroke-linecap:round;stroke-linejoin:round;stroke-dasharray:none;stroke-opacity:1"
       d="M 34.252645,33.195109 C 10.087543,59.811557 -2.2073079,179.99895 2.4558531,222.21515 c 4.663161,42.21623 12.5826139,56.39245 31.2485919,58.21516 27.403445,2.67591 62.856846,2.34323 83.877975,2.15633 21.02113,-0.1869 30.38501,-15.81243 37.82721,-58.93412 C 162.85184,180.53084 150.01698,62.454116 119.22702,31.038919 88.437061,-0.37628637 58.417753,6.5786362 34.252645,33.195109 Z"
       id="path375"
       sodipodi:nodetypes="zzszzzz"
       inkscape:label="body-path" />
    <g
       id="path850"
       inkscape:label="Left Ear"
       transform="matrix(0.82605032,0,0,0.82605032,-113.59369,-63.138167)"
       style="display:inline;stroke:none">
      <path
         style="color:#000000;fill:#ffffff;stroke-linecap:round;stroke-linejoin:round;-inkscape-stroke:none"
         d="m 179.32031,80.195312 a 1.50015,1.50015 0 0 0 -0.78125,1.335938 l 0.49024,34.20117 a 1.50015,1.50015 0 0 0 2.20507,1.30078 l 28.3379,-15.14453 a 1.50015,1.50015 0 0 0 0.12109,-2.574217 L 180.86719,80.259766 a 1.50015,1.50015 0 0 0 -1.54688,-0.06445 z m 2.25977,4.13086 24.35937,16.101558 -23.94726,12.80079 z"
         id="path3325"
         inkscape:label="left-ear-path" />
      <path
         style="color:#000000;display:inline;fill:#000000;stroke:none;stroke-width:3;stroke-linecap:round;stroke-linejoin:round;-inkscape-stroke:none"
         d="m 182.12222,120.96159 -0.78586,-37.315822 32.2175,21.607452 z"
         id="path3323"
         sodipodi:nodetypes="cccc"
         inkscape:label="left-ear-fill" />
    </g>
    <g
       id="path852"
       inkscape:label="Right Ear"
       transform="matrix(0.82605032,0,0,0.82605032,-129.69912,-63.586502)"
       style="display:inline;stroke:none">
      <path
         style="color:#000000;fill:#ffffff;stroke-linecap:round;stroke-linejoin:round;-inkscape-stroke:none"
         d="m 307.18336,124.26563 c 1.05529,0.74095 2.49185,-0.10668 2.35352,-1.38868 l -4.39649,-40.550778 c -0.0568,-0.525874 -0.38623,-0.983003 -0.86718,-1.203125 h 2.3e-4 c -0.48087,-0.219589 -1.04182,-0.169876 -1.47657,0.130859 l -26.87304,18.566406 c -0.85846,0.593508 -0.86361,1.860478 -0.01,2.460938 5.06208,3.66406 10.21804,7.32813 15.43919,10.99219 5.22115,3.66406 10.5075,7.32813 15.83034,10.99219 m -0.98609,-4.35938 -13.39844,-9.4209 -13.39844,-9.4209 m 0,0 23.0293,-15.910153 3.76758,34.751953"
         id="path3313"
         sodipodi:nodetypes="ccccccccsccccccc"
         inkscape:label="right-ear-path" />
      <path
         style="color:#000000;display:inline;fill:#000000;stroke:none;stroke-width:3;stroke-linecap:round;stroke-linejoin:round;-inkscape-stroke:none"
         d="m 275.03475,103.79882 27.70384,-19.200739 4.11733,40.520049 z"
         id="path3311"
         sodipodi:nodetypes="cccc"
         inkscape:label="right-ear-fill" />
    </g>
    <g
       id="g3228"
       style="display:inline;fill:#ffffff;stroke:none"
       transform="matrix(0.82605032,0,0,0.43315426,-123.7706,107.78145)"
       inkscape:label="Right Foot">
      <path
         style="color:#000000;display:inline;fill:#000000;stroke-width:3;stroke-linecap:round;stroke-linejoin:round;-inkscape-stroke:none"
         d="m 308.40528,396.21237 -38.33674,-0.87883 c 0,0 -5.55218,27.74196 1.73822,35.63136 7.2904,7.8894 26.58848,8.05499 33.89333,-0.86903 7.30486,-8.92402 2.70519,-33.8835 2.70519,-33.8835 z"
         id="path3224"
         inkscape:label="right-foot-fill" />
      <path
         style="color:#000000;display:inline;fill:#ffffff;stroke-linecap:round;stroke-linejoin:round;-inkscape-stroke:none"
         d="m 271.62464,395.36639 c -0.72788,-0.017 -2.88397,-1.04122 -3.02698,-0.32733 0,0 -1.40655,7.01702 -1.89063,15.06055 -0.24204,4.02176 -0.25986,8.30879 0.26563,12.17187 0.52548,3.86309 1.54803,7.34708 3.73242,9.71094 4.08937,4.42537 11.09757,6.44563 18.0625,6.35352 6.96492,-0.0921 14.02835,-2.32255 18.09375,-7.28907 4.18434,-5.11181 4.67064,-13.80292 4.42969,-21.2871 -0.24096,-7.48419 -1.41016,-13.81836 -1.41016,-13.81836 0.0477,0.14612 0.15643,-0.46613 -2.85978,0.24446 0.12957,0.77706 1.07433,7.53276 1.27191,13.66956 0.23266,7.22654 -0.63339,15.47882 -3.75391,19.29101 -3.23944,3.9575 -9.47763,6.10571 -15.81054,6.18946 -6.33292,0.0838 -12.6193,-1.92465 -15.82032,-5.38867 -1.46081,-1.58084 -2.47898,-4.52266 -2.96289,-8.08008 -0.4839,-3.55742 -0.47884,-7.68605 -0.24414,-11.58594 0.40349,-6.70449 1.77533,-14.11966 1.92135,-14.89682"
         id="path3226"
         sodipodi:nodetypes="ccssssssccssssczc"
         inkscape:label="right-foot-path" />
    </g>
    <g
       id="g3265"
       style="display:inline;fill:#ffffff;stroke:none"
       transform="matrix(0.82605032,0,0,0.43315426,-197.85105,106.25085)"
       inkscape:label="Left Foot">
      <path
         style="color:#000000;display:inline;fill:#000000;stroke-width:3;stroke-linecap:round;stroke-linejoin:round;-inkscape-stroke:none"
         d="m 308.40528,396.21237 -38.33674,-0.87883 c 0,0 -5.55218,27.74196 1.73822,35.63136 7.2904,7.8894 26.58848,8.05499 33.89333,-0.86903 7.30486,-8.92402 2.70519,-33.8835 2.70519,-33.8835 z"
         id="path3261"
         inkscape:label="left-foot-fill" />
      <path
         style="color:#000000;display:inline;fill:#ffffff;stroke-linecap:round;stroke-linejoin:round;-inkscape-stroke:none"
         d="m 271.62464,395.36639 c -0.72788,-0.017 -2.88397,-1.04122 -3.02698,-0.32733 0,0 -1.40655,7.01702 -1.89063,15.06055 -0.24204,4.02176 -0.25986,8.30879 0.26563,12.17187 0.52548,3.86309 1.54803,7.34708 3.73242,9.71094 4.08937,4.42537 11.09757,6.44563 18.0625,6.35352 6.96492,-0.0921 14.02835,-2.32255 18.09375,-7.28907 4.18434,-5.11181 4.67064,-13.80292 4.42969,-21.2871 -0.24096,-7.48419 -1.41016,-13.81836 -1.41016,-13.81836 0.0477,0.14612 0.15643,-0.46613 -2.85978,0.24446 0.12957,0.77706 1.07433,7.53276 1.27191,13.66956 0.23266,7.22654 -0.63339,15.47882 -3.75391,19.29101 -3.23944,3.9575 -9.47763,6.10571 -15.81054,6.18946 -6.33292,0.0838 -12.6193,-1.92465 -15.82032,-5.38867 -1.46081,-1.58084 -2.47898,-4.52266 -2.96289,-8.08008 -0.4839,-3.55742 -0.47884,-7.68605 -0.24414,-11.58594 0.40349,-6.70449 1.77533,-14.11966 1.92135,-14.89682"
         id="path3263"
         sodipodi:nodetypes="ccssssssccssssczc"
         inkscape:label="left-foot-path" />
    </g>
    <path
       style="display:inline;fill:#ffffff;stroke:none;stroke-width:0.218903;stroke-dasharray:none"
       id="path846"
       d="m 50.904242,85.624952 c 1.736242,2.011185 4.059389,3.041856 6.37354,4.285822 1.237235,0.330948 2.545162,0.394158 3.815642,0.260106 1.113418,-0.162146 2.183651,-0.500834 3.300874,-0.651721 0.960076,-0.03279 1.868916,-0.178591 2.753637,-0.548142 0.669942,-0.201531 1.155205,-0.730418 1.731661,-1.095524 0.60709,-0.376448 1.106532,-0.847131 1.543196,-1.409432 0.421105,-0.716631 0.412794,-1.553892 0.563386,-2.345107 0.375783,-1.141709 1.651881,0.158122 -2.676152,-1.598383 -0.127963,-0.05196 0.171371,0.217689 0.241183,0.33683 0.215435,0.367609 0.381123,0.812685 0.541971,1.200276 0.33914,0.892498 0.559508,1.851039 1.139073,2.629534 0.317216,0.426101 0.502756,0.55138 0.908155,0.912612 2.019056,1.49658 4.27276,2.479827 6.637038,3.229055 0.789687,0.243809 1.567185,0.615928 2.392672,0.734731 0.496249,0.07145 0.65892,0.01818 1.158519,-0.04056 1.204724,-0.238043 2.330104,-0.73136 3.435084,-1.252152 1.06521,-0.418394 2.03684,-0.970675 2.75031,-1.875572 0.31666,-0.511606 0.5788,-1.053569 0.89852,-1.562499 0,0 -2.80674,-1.630763 -2.80674,-1.630763 v 0 c -0.30315,0.503643 -0.55505,1.035156 -0.86178,1.537461 -0.69583,0.85364 -1.6489,1.345825 -2.65748,1.757934 -1.085495,0.490625 -2.184493,0.98984 -3.374915,1.155851 -1.216134,0.04874 -2.330885,-0.374308 -3.46186,-0.787821 -0.638049,-0.221951 -1.272285,-0.455162 -1.906364,-0.688116 -0.225458,-0.08283 -0.867987,-0.397677 -0.673052,-0.257348 0.152073,0.109468 3.372741,2.044574 1.438084,0.881172 -0.477915,-0.386888 -0.980309,-0.78122 -1.306909,-1.316112 C 72.41137,86.848085 72.251207,86.093991 71.99019,85.401918 71.93355,85.248446 71.485204,83.895079 71.3304,83.798207 69.439132,82.6147 68.558012,81.0902 68.121515,82.591018 c -0.147723,0.739331 -0.111933,1.531687 -0.496462,2.2069 -0.41943,0.531341 -0.899529,0.970065 -1.480103,1.323755 -0.550966,0.373085 -1.049594,0.842348 -1.699897,1.04179 -0.859648,0.344982 -1.761823,0.427339 -2.680279,0.501535 -1.108661,0.166292 -2.17523,0.517562 -3.29048,0.637926 -1.244371,0.08737 -2.516175,0.03164 -3.707402,-0.368286 4.769416,2.975731 -0.148335,0.106536 -0.857334,-1.064878 0,0 -3.005316,-1.244842 -3.005316,-1.244842 z"
       inkscape:label="mouth-path" />
    <path
       style="display:inline;fill:#ffffff;stroke:none;stroke-width:0.218903;stroke-dasharray:none"
       id="path1847"
       d="m 15.196127,92.818107 c -0.586834,1.820136 -1.238357,3.618166 -1.994308,5.374903 -0.697725,1.790563 -1.411068,3.56204 -1.762462,5.45656 -0.193758,1.60022 -0.429431,3.19399 -0.573527,4.80019 -0.151142,1.76019 -0.174643,3.5278 -0.197624,5.29328 -0.01033,1.40899 -0.07435,2.81473 0.119141,4.21323 0.06212,1.45858 0.620488,2.75311 1.243644,4.04815 0.593782,1.55647 1.243181,2.85909 2.437501,4.03655 2.076368,1.65512 3.972757,2.52938 6.469271,2.71421 1.155644,-0.088 2.307703,-0.24354 3.357168,-0.75491 0.121536,-0.0978 0.255257,-0.18212 0.36461,-0.29336 0.04626,-0.0471 0.462084,-0.61006 0.522146,-0.67855 0.327917,-0.37398 0.683384,-0.72857 1.014051,-1.10152 0.644452,-0.72919 0.968883,-1.66134 1.555585,-2.43225 0.02925,-0.0384 0.902179,-1.04475 0.948959,-1.09874 0.132606,-0.19607 0.285532,-0.37983 0.397826,-0.5882 0.355366,-0.65945 0.571973,-1.40603 0.859653,-2.09544 0.07128,-0.17078 0.552149,-1.20265 0.629013,-1.36829 0.645699,-1.22436 0.938492,-2.59179 1.536412,-3.83193 0.979308,-1.96791 2.126378,-3.84379 3.188232,-5.76776 0.149697,-0.30122 0.299386,-0.60244 0.449083,-0.90365 0,0 -2.770846,-1.57407 -2.770846,-1.57407 v 0 c -0.143212,0.29928 -0.286433,0.59857 -0.429653,0.89784 -1.047416,1.93746 -2.197005,3.81988 -3.247898,5.75401 -0.588544,1.24744 -0.891647,2.60992 -1.524394,3.84277 -0.214302,0.46289 -0.448866,0.91677 -0.64621,1.38714 -0.367121,0.875 -0.599969,1.82912 -1.200689,2.58538 -0.497547,0.58552 -1.005279,1.14739 -1.412884,1.80247 -0.27695,0.44513 -0.416751,0.80103 -0.714666,1.22945 -0.118192,0.16996 -0.260115,0.32211 -0.390177,0.48317 -0.339969,0.37603 -0.70714,0.73417 -1.040981,1.11455 -0.06905,0.0788 -0.391209,0.52892 -0.474582,0.60831 -0.09606,0.0914 -0.213798,0.15703 -0.320697,0.23556 -1.023592,0.44987 -2.136612,0.61032 -3.250624,0.62373 -0.60058,-0.0585 -1.193378,-0.12371 -1.775521,-0.29328 -1.205108,-0.35102 -1.574294,-0.83402 1.505981,1.08524 0.202994,0.12648 -0.413686,-0.24019 -0.620521,-0.36028 -1.332055,-1.17927 -1.873722,-2.27772 -2.484949,-3.93022 -0.63325,-1.25785 -1.225173,-2.51697 -1.272101,-3.94954 -0.208438,-1.38878 -0.18777,-2.77792 -0.165458,-4.18133 0.01157,-1.75907 0.03586,-3.51974 0.178336,-5.27399 0.148103,-1.59655 0.408144,-3.17689 0.566332,-4.77191 0.332906,-1.87469 1.004163,-3.63934 1.70638,-5.404713 0.760272,-1.766765 1.401337,-3.576426 2.076286,-5.376613 0,0 -2.854838,-1.556147 -2.854838,-1.556147 z"
       inkscape:label="hands-l-path" />
    <path
       style="display:inline;fill:#ffffff;stroke:none;stroke-width:0.239699;stroke-dasharray:none"
       id="path1851"
       d="m 119.23864,93.255939 c 0.0351,2.315609 0.0448,4.631648 0.0428,6.947591 -0.0155,2.30957 -0.11285,4.62561 0.32392,6.88868 0.47565,2.13969 1.25117,4.14788 2.17187,6.0588 0.607,1.3813 1.38108,2.63409 2.45566,3.52568 7.09188,4.92185 2.55931,1.7551 1.25482,0.91007 -0.45861,-0.29709 0.88536,0.66035 1.31872,1.00769 1.6591,1.32982 0.41657,0.35089 3.99338,2.82118 -3.60387,-2.41085 -2.06392,-1.39824 1.44387,1.0566 0.66063,0.46234 -2.65764,-1.81792 -1.98813,-1.37431 1.8214,1.20685 3.04744,2.30096 4.87702,2.99577 1.42143,0.56012 2.75397,0.31817 4.10723,-0.35074 1.37663,-0.58122 2.58544,-1.47785 3.71707,-2.5687 1.51476,-1.47272 1.96896,-3.70801 2.4089,-5.87947 0.47891,-2.56738 0.48105,-5.21415 0.53079,-7.83151 0.0354,-2.68273 -0.49965,-5.27466 -0.95027,-7.879216 -0.18892,-1.102868 -0.44372,-2.17081 -0.75798,-3.22965 0,0 -2.8998,-1.61891 -2.8998,-1.61891 v 0 c 0.33487,1.041683 0.59497,2.095194 0.79557,3.187505 0.44689,2.580611 1.01276,5.143801 0.98226,7.803751 -0.0259,2.59371 -0.0524,5.20911 -0.49832,7.75826 -0.41184,2.0939 -0.86265,4.24404 -2.34355,5.63151 -1.10987,1.06069 -2.30914,1.91007 -3.65352,2.47674 -1.33568,0.57315 -2.6155,0.72504 -3.97755,0.13248 -0.23196,-0.10084 -0.46807,-0.18891 -0.69588,-0.30255 -0.22955,-0.11453 -0.88313,-0.54382 -0.67474,-0.38122 0.89913,0.7016 6.61333,4.56389 -1.46799,-0.98605 -0.49283,-0.33844 8.97026,6.25803 -1.45576,-1.06151 0.69393,0.48841 1.38005,0.99313 2.08178,1.46524 0.20194,0.13588 -0.38982,-0.29996 -0.58146,-0.45586 -0.21025,-0.171 -0.41067,-0.35932 -0.62403,-0.52471 -1.33764,-1.03691 -2.75196,-1.92467 -4.11158,-2.91961 -0.71858,-0.52582 1.45615,1.01338 2.18422,1.52007 -1.13123,-0.76403 -1.93504,-2.01477 -2.54831,-3.37243 -0.94035,-1.87036 -1.71296,-3.84691 -2.20662,-5.95587 -0.49764,-2.23043 -0.37924,-4.53404 -0.39175,-6.82495 -0.003,-2.298554 0.007,-4.597204 0.0427,-6.895401 0,0 -2.90529,-1.77495 -2.90529,-1.77495 z"
       inkscape:label="hands-r-path" />
    <ellipse
       style="display:none;fill:#ffffff;stroke:none;stroke-width:0.218903;stroke-dasharray:none"
       id="path755"
       cx="40.891781"
       cy="71.687553"
       rx="6.5339484"
       ry="6.8969288"
       inkscape:label="eyes-open-l-path" />
    <ellipse
       style="display:none;fill:#ffffff;stroke:none;stroke-width:0.218903;stroke-dasharray:none"
       id="path755-7"
       cx="97.924225"
       cy="73.624306"
       rx="6.5339484"
       ry="6.8969288"
       inkscape:label="eyes-open-r-path" />
    <ellipse
       style="display:inline;fill:#ffffff;stroke:none;stroke-width:0.14789;stroke-dasharray:none"
       id="ellipse1722"
       cx="62.503826"
       cy="64.707489"
       rx="6.5063319"
       ry="0.91395402"
       transform="matrix(0.98886824,0.14879386,-0.32324321,0.94631592,0,0)"
       inkscape:label="eyes-closed-l-path" />
    <ellipse
       style="display:inline;fill:#ffffff;stroke:none;stroke-width:0.153415;stroke-dasharray:none"
       id="ellipse1724"
       cx="104.89941"
       cy="62.451218"
       rx="6.5339484"
       ry="0.69602609"
       transform="rotate(5.9)"
       inkscape:label="eyes-closed-r-path" />
  </g>
</svg>
